<svg width="18" height="22" viewBox="0 0 18 22" fill="none" xmlns="http://www.w3.org/2000/svg">
<path d="M0.75 4.3935C0.75 3.11828 0.75 2.48066 1.04067 1.99335C1.29633 1.56488 1.70426 1.21653 2.206 0.998214C2.77667 0.75 3.52333 0.75 5.01667 0.75H12.4833C13.9767 0.75 14.7233 0.75 15.294 0.998214C15.7957 1.21653 16.2037 1.56488 16.4593 1.99335C16.75 2.48066 16.75 3.11828 16.75 4.3935V19.5425C16.75 20.0959 16.75 20.3725 16.6153 20.524C16.5571 20.5898 16.4829 20.6441 16.3977 20.683C16.3125 20.722 16.2184 20.7446 16.122 20.7494C15.8993 20.7608 15.63 20.6071 15.0913 20.3008L8.75 16.6903L2.40867 20.2997C1.87 20.6071 1.60067 20.7608 1.37667 20.7494C1.28045 20.7444 1.18664 20.7217 1.1017 20.6828C1.01676 20.6439 0.942713 20.5897 0.884666 20.524C0.75 20.3725 0.75 20.0959 0.75 19.5425V4.3935Z" stroke="#575757" stroke-width="1.5" stroke-linecap="round" stroke-linejoin="round"/>
</svg>
